<svg width="26" height="26" viewBox="0 0 26 26" fill="none" xmlns="http://www.w3.org/2000/svg">
<path d="M24.2125 0.8125H1.7875C1.2482 0.8125 0.8125 1.2482 0.8125 1.7875V24.2125C0.8125 24.7518 1.2482 25.1875 1.7875 25.1875H24.2125C24.7518 25.1875 25.1875 24.7518 25.1875 24.2125V1.7875C25.1875 1.2482 24.7518 0.8125 24.2125 0.8125ZM21.3972 7.92695H19.4502C17.9238 7.92695 17.6282 8.65211 17.6282 9.71852V12.0677H21.2723L20.797 15.7452H17.6282V25.1875H13.8288V15.7483H10.6509V12.0677H13.8288V9.35594C13.8288 6.20852 15.7513 4.49313 18.5605 4.49313C19.9073 4.49313 21.062 4.59367 21.4002 4.63938V7.92695H21.3972Z" fill="#F66362"/>
</svg>
