<svg width="26" height="26" viewBox="0 0 26 26" fill="none" xmlns="http://www.w3.org/2000/svg">
<path d="M24.2125 0.8125H1.7875C1.2482 0.8125 0.8125 1.2482 0.8125 1.7875V24.2125C0.8125 24.7518 1.2482 25.1875 1.7875 25.1875H24.2125C24.7518 25.1875 25.1875 24.7518 25.1875 24.2125V1.7875C25.1875 1.2482 24.7518 0.8125 24.2125 0.8125ZM8.04273 21.583H4.42609V9.95008H8.04273V21.583ZM6.23594 8.35961C5.82134 8.35961 5.41605 8.23667 5.07132 8.00633C4.7266 7.77599 4.45792 7.4486 4.29926 7.06556C4.14059 6.68252 4.09908 6.26103 4.17997 5.8544C4.26085 5.44777 4.4605 5.07425 4.75367 4.78109C5.04683 4.48792 5.42035 4.28827 5.82698 4.20739C6.23361 4.1265 6.6551 4.16802 7.03814 4.32668C7.42118 4.48534 7.74857 4.75402 7.97891 5.09875C8.20924 5.44347 8.33219 5.84876 8.33219 6.26336C8.32914 7.42117 7.3907 8.35961 6.23594 8.35961ZM21.583 21.583H17.9695V15.925C17.9695 14.5752 17.9451 12.8416 16.0895 12.8416C14.2096 12.8416 13.9202 14.3102 13.9202 15.8275V21.583H10.3096V9.95008H13.777V11.5405H13.8257C14.3071 10.6265 15.4863 9.66063 17.2473 9.66063C20.9097 9.66063 21.583 12.0707 21.583 15.2029V21.583V21.583Z" fill="#F66362"/>
</svg>
