<svg width="26" height="26" viewBox="0 0 26 26" fill="none" xmlns="http://www.w3.org/2000/svg">
<path d="M25.6751 5.14831C24.7428 5.5505 23.7281 5.83995 22.6831 5.95269C23.7681 5.30808 24.5806 4.2897 24.9682 3.08863C23.9501 3.69431 22.8347 4.11903 21.6715 4.34394C21.1854 3.82422 20.5974 3.41019 19.9442 3.12765C19.2911 2.8451 18.5867 2.7001 17.8751 2.70167C14.9958 2.70167 12.6802 5.03558 12.6802 7.89964C12.6802 8.30183 12.7289 8.70402 12.8081 9.09097C8.49682 8.8655 4.65166 6.80581 2.09533 3.6523C1.62954 4.44788 1.38545 5.35375 1.38846 6.27566C1.38846 8.07941 2.30557 9.66988 3.70408 10.6053C2.87992 10.5728 2.07505 10.3463 1.35494 9.94409V10.0081C1.35494 12.5339 3.14041 14.6271 5.52002 15.1085C5.07322 15.2246 4.6136 15.284 4.15197 15.2853C3.81377 15.2853 3.49385 15.2518 3.17088 15.206C3.829 17.2657 5.74549 18.7618 8.0276 18.8105C6.24213 20.209 4.00572 21.0317 1.57736 21.0317C1.14166 21.0317 0.739474 21.0164 0.322052 20.9677C2.62549 22.4454 5.35854 23.2985 8.30182 23.2985C17.8568 23.2985 23.0853 15.3828 23.0853 8.51206C23.0853 8.28659 23.0853 8.06113 23.07 7.83566C24.0816 7.09527 24.9682 6.17816 25.6751 5.14831Z" fill="#F66362"/>
</svg>
